<svg width="512" height="512" viewBox="0 0 192 192" fill="none" xmlns="http://www.w3.org/2000/svg">
    <!-- Background Circle (optional, for PWA maskable icon) -->
    <!-- <circle cx="96" cy="96" r="96" fill="#28a745"/> -->

    <!-- Rocket Body -->
    <path d="M96 10 L76 182 L96 172 L116 182 L96 10 Z" fill="#FF5733"/>
    <!-- Rocket Fins -->
    <path d="M76 182 L60 160 L76 150 L76 182 Z" fill="#C70039"/>
    <path d="M116 182 L132 160 L116 150 L116 182 Z" fill="#C70039"/>
    <!-- Rocket Exhaust -->
    <path d="M86 182 L96 192 L106 182 L86 182 Z" fill="#FFC300"/>

    <!-- Courier Body (simplified) -->
    <circle cx="96" cy="60" r="15" fill="#3498DB"/>
    <rect x="86" y="75" width="20" height="30" fill="#3498DB"/>
    <!-- Courier Arms (simplified) -->
    <rect x="76" y="78" width="10" height="5" fill="#3498DB" transform="rotate(-15 76 78)"/>
    <rect x="106" y="78" width="10" height="5" fill="#3498DB" transform="rotate(15 106 78)"/>

    <!-- KapGel Text (optional, can be added if needed) -->
    <!-- <text x="50%" y="140" font-family="Arial" font-size="24" fill="white" text-anchor="middle">KapGel</text> -->
</svg>